<?xml version="1.0" encoding="UTF-8" standalone="no"?>
<svg
   height="400"
   viewBox="0 0 400 400"
   width="400"
   version="1.1"
   id="svg10"
   sodipodi:docname="博远智慧icon.svg"
   inkscape:version="1.4-rc1 (61ec3f24, 2024-09-26)"
   inkscape:export-filename="博远智慧icon.png"
   inkscape:export-xdpi="96"
   inkscape:export-ydpi="96"
   inkscape:export-batch-path="/Users/songkunda/Downloads/BaiduSysnc/BY"
   inkscape:export-batch-name="icon"
   xmlns:inkscape="http://www.inkscape.org/namespaces/inkscape"
   xmlns:sodipodi="http://sodipodi.sourceforge.net/DTD/sodipodi-0.dtd"
   xmlns="http://www.w3.org/2000/svg"
   xmlns:svg="http://www.w3.org/2000/svg">
  <defs
     id="defs10">
    <linearGradient
       id="swatch27"
       inkscape:swatch="solid">
      <stop
         style="stop-color:#000000;stop-opacity:1;"
         offset="0"
         id="stop27" />
    </linearGradient>
    <rect
       x="167.57991"
       y="297.26028"
       width="74.429222"
       height="13.69863"
       id="rect20" />
  </defs>
  <sodipodi:namedview
     id="namedview10"
     pagecolor="#ffffff"
     bordercolor="#000000"
     borderopacity="0.25"
     inkscape:showpageshadow="2"
     inkscape:pageopacity="0.0"
     inkscape:pagecheckerboard="0"
     inkscape:deskcolor="#d1d1d1"
     inkscape:zoom="2.12"
     inkscape:cx="246.46226"
     inkscape:cy="200"
     inkscape:window-width="1920"
     inkscape:window-height="1027"
     inkscape:window-x="0"
     inkscape:window-y="25"
     inkscape:window-maximized="1"
     inkscape:current-layer="layer3">
    <inkscape:page
       x="0"
       y="0"
       width="400"
       height="400"
       id="page2"
       margin="0"
       bleed="0" />
  </sodipodi:namedview>
  <path
     d="m 188.35,0 h 6.71 q 6.96,1.17 10.69,2.44 24.89,8.51 108.05,37.62 10.23,3.58 14.81,6.68 10.39,7.04 15.86,18.35 25.87,53.48 51.52,106.3 c 1.97,4.06 2.96,8.13 4.01,12.43 v 14.7 c -1.21,2.76 -1.32,5.98 -2.31,8.82 q -17.32,49.56 -34.98,100.77 -3.34,9.68 -6.07,15.68 -3.68,8.1 -11.77,14.82 -3.9,3.25 -16.67,9.43 -49.15,23.81 -98.31,47.59 -6.46,3.13 -13.76,4.37 h -14.67 c -2.88,-0.98 -5.81,-1.54 -8.67,-2.53 Q 138.14,378.51 83.32,359.48 64.46,352.93 55.85,335.13 31.17,284.07 6.48,233 0.9,221.47 0,211.37 v -4.14 q 0.61,-1.84 0.97,-6.73 0.12,-1.7 0.69,-3.36 Q 21.42,140.17 40.49,85.19 C 44,75.07 48.72,67.44 56.72,61.3 q 4.17,-3.21 12.59,-7.26 50.99,-24.52 100.15,-48.5 5.02,-2.45 10.45,-4.01 c 2.53,-0.72 5.63,-0.8 8.44,-1.53 z M 302.8,43 C 272.92,32.62 243.03,22.25 213.17,11.84 Q 199.5,7.07 193.93,6.74 183.09,6.11 173.69,10.67 119.3,37.08 68.98,61.4 C 58.7,66.37 51.12,74.23 47.52,84.69 Q 30.03,135.48 9.79,193.22 7.17,200.7 6.76,206.53 6,217.32 10.8,227.15 q 24.18,49.53 47.69,98.68 5.34,11.15 9.41,15.74 7.49,8.43 18.82,12.32 53.32,18.3 105.57,36.6 c 5.5,1.92 11.71,3.87 17.17,3.75 10.36,-0.24 19.03,-4.88 28.52,-9.53 q 51.18,-25.12 90.06,-43.64 9.21,-4.39 13.78,-8.46 7.93,-7.06 11.47,-17.29 18.91,-54.58 37.53,-108.14 1.32,-3.79 2.31,-7.9 1.21,-5.04 1,-8.39 -0.48,-7.99 -2.77,-13.91 -0.55,-1.43 -6.07,-12.82 Q 365.59,123.44 345.14,81.29 337.36,65.25 336.31,63.67 330.6,54.99 321.47,50.05 318.5,48.45 302.8,43 Z"
     id="path1"
     style="fill:#000000;fill-opacity:1"
     inkscape:label="八边形外框" />
  <path
     d="M 84.97,61.39 C 112.05,48.6 140.5,34.59 168.9,20.77 q 10.19,-4.96 16.12,-5.88 10.76,-1.67 20.24,1.62 52.51,18.23 103.98,36.17 11.4,3.98 18.57,12.17 4.01,4.59 8.06,13.01 21.53,44.76 44.81,92.54 c 3.83,7.86 6.31,15.71 5.69,24.38 -0.42,5.84 -2.81,12.08 -4.95,18.26 q -16.77,48.34 -33.57,96.64 -4.38,12.59 -14.67,20.23 c -4.72,3.51 -10.81,6.09 -16.43,8.83 q -45.58,22.19 -90.64,43.8 -9.8,4.7 -20.28,3.81 -6.26,-0.53 -17.72,-4.57 -45.55,-16.05 -96.58,-33.64 -13.23,-4.57 -20.82,-14.98 -3.02,-4.13 -8.8,-16.21 -26,-54.33 -42.84,-88.66 -6.77,-13.8 -3.87,-27.75 0.9,-4.36 3.47,-11.61 17.02,-48.21 34.34,-98.37 4.12,-11.9 14.44,-19.62 4.61,-3.44 17.52,-9.55 z m 146.94,315.55 c 30.81,-14.96 62.17,-30.1 93.07,-45.22 q 15.1,-7.39 20.44,-22.83 18.06,-52.21 34.58,-99.4 3.12,-8.91 3.46,-14.79 0.64,-10.9 -3.74,-19.92 Q 357.76,129.56 334.93,82.04 329.71,71.18 325.83,66.77 318.72,58.7 307.78,54.91 260.16,38.44 212.94,21.98 c -5.95,-2.08 -12.04,-4.31 -17.7,-4.85 q -10.52,-1.01 -20.87,4 -50.74,24.53 -98.47,47.7 -9.73,4.72 -15.54,13.03 -3.52,5.04 -7.94,17.9 -15.33,44.53 -30.78,88.87 c -1.95,5.62 -4.09,11.53 -4.53,16.63 q -0.91,10.84 4.15,21.31 23.79,49.18 47.64,98.48 7.3,15.08 24.28,20.94 48.92,16.88 99.09,34.46 7.13,2.49 11.92,2.99 c 7.3,0.76 14.44,-0.36 21.13,-3.41 q 3.44,-1.56 6.59,-3.09 z"
     id="path2"
     style="fill:#000000;fill-opacity:1"
     inkscape:label="八边形内框" />
  <text
     xml:space="preserve"
     style="font-style:normal;font-variant:normal;font-weight:500;font-stretch:normal;font-size:53.0697px;font-family:'.PingFang SC';-inkscape-font-specification:'.PingFang SC, Medium';font-variant-ligatures:normal;font-variant-caps:normal;font-variant-numeric:normal;font-variant-east-asian:normal;text-align:start;writing-mode:lr-tb;direction:ltr;text-anchor:start;display:inline;fill:#000000;fill-opacity:1;stroke-width:4.09155;paint-order:markers fill stroke"
     x="81.430191"
     y="298.0061"
     id="text17"
     transform="scale(1.0681894,0.93616357)"
     inkscape:label="公司名称"><tspan
       x="81.430191"
       y="298.0061"
       id="tspan18"
       sodipodi:role="line"
       style="font-style:normal;font-variant:normal;font-weight:500;font-stretch:normal;font-size:53.0697px;font-family:'.PingFang SC';-inkscape-font-specification:'.PingFang SC, Medium';font-variant-ligatures:normal;font-variant-caps:normal;font-variant-numeric:normal;font-variant-east-asian:normal;fill:#000000;fill-opacity:1;stroke-width:4.09155">博远智慧</tspan></text>
  <g
     inkscape:groupmode="layer"
     id="layer3"
     inkscape:label="logo"
     style="display:inline">
    <g
       inkscape:groupmode="layer"
       id="layer1"
       inkscape:label="logo圆"
       style="display:inline">
      <path
         d="m 182.03,213.35 c 9.41392,3.09425 18.64921,3.66988 28.0137,2.3058 2.77146,-0.40371 5.55423,-0.97731 8.3563,-1.7058 0.72,-0.18667 1.20333,0.0733 1.45,0.78 l 0.97,2.74 c 0.22,0.62667 0.0133,1.05 -0.62,1.27 -12.52,4.32 -26.76,3.79 -39.58,-0.13 -0.4,-0.12667 -0.54667,-0.39333 -0.44,-0.8 l 1.09,-4.05 c 0.10667,-0.40667 0.36,-0.54333 0.76,-0.41 z"
         style="display:inline"
         id="path1-3"
         inkscape:label="logo下圆" />
      <path
         d="m 228.43,93.38 q -9.5,-4.58 -22.1,-6.11 -9.62,-1.17 -20.03,1.31 c -34.64,8.23 -58.22,40.62 -50.39,76.57 q 6,27.54 30.25,42.09 1.31,0.78 0.45,2.04 l -1.23,1.8 a 1.61,1.61 0 0 1 -2.15,0.48 q -21.77,-13.02 -29.97,-36.27 -8.19,-23.23 -0.52,-45.4 c 9.5,-27.46 36.59,-47.64 65.72,-48.24 q 21.47,-0.45 39.53,10.92 27.94,17.59 33.39,49.73 1.62,9.54 0,19.4 c -3.45,20.87 -15.95,40.15 -34.81,50.23 a 1.07,1.07 0 0 1 -1.41,-0.38 l -1.62,-2.62 q -0.48,-0.77 0.31,-1.22 14.28,-7.99 22.85,-21.5 12.92,-20.36 9.22,-44.17 c -3.36,-21.6 -17.83,-39.19 -37.49,-48.66 z"
         id="path3"
         style="display:inline"
         inkscape:label="logo上圆" />
    </g>
    <g
       inkscape:groupmode="layer"
       id="layer2"
       inkscape:label="logo树">
      <path
         d="m 180.35,148.61 c 1.35333,0.13333 1.45667,-0.17 0.31,-0.91 -1.22,-0.78667 -2.40333,-1.61333 -3.55,-2.48 -11.25,-8.51 -10.46,-23.27 -1.66,-33.18 0.31987,-0.36298 0.91132,-0.25345 1.08,0.2 0.37333,1.00667 0.35333,2.01 -0.06,3.01 -2.96,7.16 -4.59,16.57 1.31,22.47 2.48,2.47 6.11,3.83 9.12,5.6 1.66,0.98 2.56333,2.5 2.71,4.56 0.46,6.61 3.11,11.06 9.97,13.21 3.27333,1.02 6.15,2.16333 8.63,3.43 8.41,4.28 11.03,14.31 7.65,22.91 -1.58,4.03 -4.06,7.72 -6.91,10.96 -3.11333,3.53333 -5.59,7.46667 -7.43,11.8 -0.18287,0.41179 -0.75617,0.44104 -0.98,0.05 -3.61,-6.54 -7.73,-13.44 -7.98,-21.13 -0.16,-5.15 0.05,-10.38 -1.5,-15.36 -2.44667,-7.82667 -7.46667,-13.67333 -15.06,-17.54 -2.47333,-1.25333 -5.36,-2.44667 -8.66,-3.58 -8.49333,-2.91333 -14.06,-8.25667 -16.7,-16.03 -0.93,-2.72 -1.76,-7.86 -0.06,-10.28 0.44487,-0.64543 1.448,-0.43092 1.59,0.34 2.7,14.78 14.47,20.63 28.18,21.95 z m 30.91,-4.28 c -1.24667,-0.96667 -2.61,-1.48333 -4.09,-1.55 -0.48667,-0.0267 -0.72667,-0.28 -0.72,-0.76 0.04,-5.42 2.94,-8.24 7.87,-9.42 2.84667,-0.68667 5.54,-1.64 8.08,-2.86 5.06,-2.43 8.56,-8.33 10.46,-13.52 0.18744,-0.50431 0.84584,-0.62502 1.2,-0.22 0.12667,0.14667 0.19667,0.32333 0.21,0.53 0.53,9.12 -5.57,17.89 -14.29,20.36 -3.91,1.1 -7.18,2.82 -8.14,7.22 -0.08,0.38 -0.27333,0.45333 -0.58,0.22 z m 33.49,-2.2 c 1.35,-0.44 2.5,-1.14 3.9,-1.45 0.57452,-0.12162 1.03441,0.47564 0.77,1 -2.95,5.75 -10.2,8.16 -16.11,8.81 -6.63,0.73 -13.98,1.09 -17.44,7.58 -0.78667,1.47333 -1.10333,1.38 -0.95,-0.28 0.17333,-1.84667 0.11333,-3.74667 -0.18,-5.7 -0.0533,-0.36667 0.03,-0.7 0.25,-1 3.98,-5.4 10.02,-6.17 16.17,-6.38 4.22,-0.14 8.75,-1 13.59,-2.58 z"
         id="path5"
         style="display:inline"
         sodipodi:nodetypes="cccccccccccccccccccccccccccccccccccccccccccc" />
      <path
         d="m 197.16,123.24 c -2.79,2.01 -5.65,4.68 -4.86,8.47 q 1.68,8.03 10.27,9.56 a 1.06,1.06 0 0 1 0.69,1.64 c -3.33,4.9 -8.83,2.9 -11.82,-1.23 -2.21,-3.04 -4.72,-7.73 -4.88,-11.51 -0.22,-5.29 4.33,-9.34 8.59,-12.23 4.2,-2.85 7.29,-6.64 9.61,-11.24 a 0.8,0.79 -53.9 0 1 1.28,-0.2 q 0.43,0.44 0.35,1.05 c -0.92,6.59 -3.97,11.93 -9.23,15.69 z"
         id="path4" />
    </g>
  </g>
  <text
     xml:space="preserve"
     id="text19"
     style="font-style:normal;font-variant:normal;font-weight:500;font-stretch:normal;font-size:11.2772px;font-family:'.PingFang SC';-inkscape-font-specification:'.PingFang SC, Medium';font-variant-ligatures:normal;font-variant-caps:normal;font-variant-numeric:normal;font-variant-east-asian:normal;text-align:start;writing-mode:lr-tb;direction:ltr;white-space:pre;shape-inside:url(#rect20);shape-padding:0;display:inline;fill:#000000;fill-opacity:1;paint-order:markers fill stroke"
     inkscape:label="愿景"
     inkscape:transform-center-x="0.87427038"
     inkscape:transform-center-y="1.1122183"
     transform="matrix(1.914699,0,0,2.4356945,-186.49541,-428.00674)"><tspan
       x="167.58008"
       y="308.36781"
       id="tspan1">科技改变世界</tspan></text>
</svg>
