<svg height="400" viewBox="0 0 400 400" width="400"
    xmlns="http://www.w3.org/2000/svg">
    <path d="m188.35 0h6.71q6.96 1.17 10.69 2.44 24.89 8.51 108.05 37.62 10.23 3.58 14.81 6.68 10.39 7.04 15.86 18.35 25.87 53.48 51.52 106.3c1.97 4.06 2.96 8.13 4.01 12.43v14.7c-1.21 2.76-1.32 5.98-2.31 8.82q-17.32 49.56-34.98 100.77-3.34 9.68-6.07 15.68-3.68 8.1-11.77 14.82-3.9 3.25-16.67 9.43-49.15 23.81-98.31 47.59-6.46 3.13-13.76 4.37h-14.67c-2.88-.98-5.81-1.54-8.67-2.53q-54.65-18.96-109.47-37.99-18.86-6.55-27.47-24.35-24.68-51.06-49.37-102.13-5.58-11.53-6.48-21.63v-4.14q.61-1.84.97-6.73.12-1.7.69-3.36 19.76-56.97 38.83-111.95c3.51-10.12 8.23-17.75 16.23-23.89q4.17-3.21 12.59-7.26 50.99-24.52 100.15-48.5 5.02-2.45 10.45-4.01c2.53-.72 5.63-.8 8.44-1.53zm114.45 43c-29.88-10.38-59.77-20.75-89.63-31.16q-13.67-4.77-19.24-5.1-10.84-.63-20.24 3.93-54.39 26.41-104.71 50.73c-10.28 4.97-17.86 12.83-21.46 23.29q-17.49 50.79-37.73 108.53-2.62 7.48-3.03 13.31-.76 10.79 4.04 20.62 24.18 49.53 47.69 98.68 5.34 11.15 9.41 15.74 7.49 8.43 18.82 12.32 53.32 18.3 105.57 36.6c5.5 1.92 11.71 3.87 17.17 3.75 10.36-.24 19.03-4.88 28.52-9.53q51.18-25.12 90.06-43.64 9.21-4.39 13.78-8.46 7.93-7.06 11.47-17.29 18.91-54.58 37.53-108.14 1.32-3.79 2.31-7.9 1.21-5.04 1-8.39-.48-7.99-2.77-13.91-.55-1.43-6.07-12.82-19.7-40.72-40.15-82.87-7.78-16.04-8.83-17.62-5.71-8.68-14.84-13.62-2.97-1.6-18.67-7.05z"/>
    <path d="m84.97 61.39c27.08-12.79 55.53-26.8 83.93-40.62q10.19-4.96 16.12-5.88 10.76-1.67 20.24 1.62 52.51 18.23 103.98 36.17 11.4 3.98 18.57 12.17 4.01 4.59 8.06 13.01 21.53 44.76 44.81 92.54c3.83 7.86 6.31 15.71 5.69 24.38-.42 5.84-2.81 12.08-4.95 18.26q-16.77 48.34-33.57 96.64-4.38 12.59-14.67 20.23c-4.72 3.51-10.81 6.09-16.43 8.83q-45.58 22.19-90.64 43.8-9.8 4.7-20.28 3.81-6.26-.53-17.72-4.57-45.55-16.05-96.58-33.64-13.23-4.57-20.82-14.98-3.02-4.13-8.8-16.21-26-54.33-42.84-88.66-6.77-13.8-3.87-27.75.9-4.36 3.47-11.61 17.02-48.21 34.34-98.37 4.12-11.9 14.44-19.62 4.61-3.44 17.52-9.55zm146.94 315.55c30.81-14.96 62.17-30.1 93.07-45.22q15.1-7.39 20.44-22.83 18.06-52.21 34.58-99.4 3.12-8.91 3.46-14.79.64-10.9-3.74-19.92-21.96-45.22-44.79-92.74-5.22-10.86-9.1-15.27-7.11-8.07-18.05-11.86-47.62-16.47-94.84-32.93c-5.95-2.08-12.04-4.31-17.7-4.85q-10.52-1.01-20.87 4-50.74 24.53-98.47 47.7-9.73 4.72-15.54 13.03-3.52 5.04-7.94 17.9-15.33 44.53-30.78 88.87c-1.95 5.62-4.09 11.53-4.53 16.63q-.91 10.84 4.15 21.31 23.79 49.18 47.64 98.48 7.3 15.08 24.28 20.94 48.92 16.88 99.09 34.46 7.13 2.49 11.92 2.99c7.3.76 14.44-.36 21.13-3.41q3.44-1.56 6.59-3.09z"/>
    <path d="m228.43 93.38q-9.5-4.58-22.1-6.11-9.62-1.17-20.03 1.31c-34.64 8.23-58.22 40.62-50.39 76.57q6 27.54 30.25 42.09 1.31.78.45 2.04l-1.23 1.8a1.61 1.61 0 0 1 -2.15.48q-21.77-13.02-29.97-36.27-8.19-23.23-.52-45.4c9.5-27.46 36.59-47.64 65.72-48.24q21.47-.45 39.53 10.92 27.94 17.59 33.39 49.73 1.62 9.54 0 19.4c-3.45 20.87-15.95 40.15-34.81 50.23a1.07 1.07 0 0 1 -1.41-.38l-1.62-2.62q-.48-.77.31-1.22 14.28-7.99 22.85-21.5 12.92-20.36 9.22-44.17c-3.36-21.6-17.83-39.19-37.49-48.66z"/>
    <path d="m197.16 123.24c-2.79 2.01-5.65 4.68-4.86 8.47q1.68 8.03 10.27 9.56a1.06 1.06 0 0 1 .69 1.64c-3.33 4.9-8.83 2.9-11.82-1.23-2.21-3.04-4.72-7.73-4.88-11.51-.22-5.29 4.33-9.34 8.59-12.23 4.2-2.85 7.29-6.64 9.61-11.24a.8.79-53.9 0 1 1.28-.2q.43.44.35 1.05c-.92 6.59-3.97 11.93-9.23 15.69z"/>
    <path d="m180.35 148.61q2.03.2.31-.91-1.83-1.18-3.55-2.48c-11.25-8.51-10.46-23.27-1.66-33.18a.64.64 0 0 1 1.08.2q.56 1.51-.06 3.01c-2.96 7.16-4.59 16.57 1.31 22.47 2.48 2.47 6.11 3.83 9.12 5.6q2.49 1.47 2.71 4.56c.46 6.61 3.11 11.06 9.97 13.21q4.91 1.53 8.63 3.43c8.41 4.28 11.03 14.31 7.65 22.91-1.58 4.03-4.06 7.72-6.91 10.96q-4.67 5.3-7.43 11.8a.55.55 0 0 1 -.98.05c-3.61-6.54-7.73-13.44-7.98-21.13-.16-5.15.05-10.38-1.5-15.36q-3.67-11.74-15.06-17.54-3.71-1.88-8.66-3.58-12.74-4.37-16.7-16.03c-.93-2.72-1.76-7.86-.06-10.28a.88.88 0 0 1 1.59.34c2.7 14.78 14.47 20.63 28.18 21.95zm30.91-4.28q-1.87-1.45-4.09-1.55-.73-.04-.72-.76c.04-5.42 2.94-8.24 7.87-9.42q4.27-1.03 8.08-2.86c5.06-2.43 8.56-8.33 10.46-13.52a.71.71 0 0 1 1.2-.22q.19.22.21.53c.53 9.12-5.57 17.89-14.29 20.36-3.91 1.1-7.18 2.82-8.14 7.22q-.12.57-.58.22zm33.49-2.2c1.35-.44 2.5-1.14 3.9-1.45a.7.7 0 0 1 .77 1c-2.95 5.75-10.2 8.16-16.11 8.81-6.63.73-13.98 1.09-17.44 7.58q-1.18 2.21-.95-.28.26-2.77-.18-5.7-.08-.55.25-1c3.98-5.4 10.02-6.17 16.17-6.38q6.33-.21 13.59-2.58zm-63.72 73.22c12.2 4.01 24.1 3.79 36.37.6q1.08-.28 1.45.78l.97 2.74q.33.94-.62 1.27c-12.52 4.32-26.76 3.79-39.58-.13q-.6-.19-.44-.8l1.09-4.05q.16-.61.76-.41zm29.63 49.08q-1.64.27-3.53 1.87-1.51 1.29-2.98-.05-.61-.55-.65-.58-1.53-1.39.3-2.29c3.84-1.88 6.97-4.26 9.13-8.02a.68.68 0 0 0 -.6-1.02l-8.33.07a.98.97 84.8 0 1 -.97-.82q-.36-2.1 1.29-3.25a.54.53-32.4 0 0 .16-.7q-.51-.86-.6-1.85-.05-.58.36-1 3.24-3.25 4.85-7.83a.9.9 0 0 1 .98-.59l2.15.33q.91.14.61 1.01l-.6 1.74a.77.76-81 0 0 .73 1.01l12.49-.16q1.17-.01 1.08 1.15l-.14 1.68a.96.96 0 0 1 -.97.88l-5.89-.09q-1.21-.02-1.17 1.19l.11 2.79q.03.89.93.86l6.8-.22q1.72-.06 1.78 1.66l.02.67q.05 1.66-1.62 1.62l-8.68-.22a.74.73-12.4 0 0 -.68 1.06q.19.38.67.6 4.14 1.95 8.35 4.78 1.14.77.14 1.72l-.86.82q-1.01.97-2.16.17l-6.73-4.74a.75.74 37.9 0 0 -1 .12zm-.56-18.52a.35.35 0 0 0 -.29.13l-3.35 4.13a.35.35 0 0 0 .28.57l7.27-.14a.35.35 0 0 0 .34-.3l.61-3.74a.35.35 0 0 0 -.33-.41zm-99.27 5.36 3.15-.04a.68.68 0 0 1 .68.61l.25 2.42a.68.68 0 0 1 -.7.75l-3.55-.11a.68.68 0 0 0 -.7.68l.03 29.75a.68.68 0 0 1 -.69.68l-2.65-.01a.68.68 0 0 1 -.68-.69l.04-29.68a.68.68 0 0 0 -.69-.68l-4.42.09a.68.68 0 0 1 -.69-.72l.13-2.59a.68.68 0 0 1 .69-.65l4.27.07a.68.68 0 0 0 .7-.68l.08-10.98a.68.68 0 0 1 .67-.67l2.54-.01a.68.68 0 0 1 .68.67l.17 11.12a.68.68 0 0 0 .69.67z"/>
    <path d="m123.21 275.24c1.87 1.75 4.35 3.29 5.49 5.63q.31.64-.22 1.12-1.56 1.39-2.66.38-2.71-2.49-5.33-4.97-.43-.41-.31-.98.12-.6.43-1.11a.7.7 0 0 0 -.63-1.07l-4.51.21q-1.3.07-1.29-1.23l.01-1.18q.01-1.26 1.27-1.28 8.29-.15 16.53-.09 1.25.01 3.27-.34.53-.09.9-.48c1.56-1.67 5.27-1.26 4.24-4.67q-.15-.5-.67-.51l-6.56-.14q-.57-.01-.61.55l-.08.96q-.09 1.1-1.17 1.3-2.88.52-2.54-1.98.11-.82-.72-.82l-6.84-.04a.7.69 86.4 0 0 -.69.79l.22 1.61q.14 1.03-.9 1.06l-1.57.04q-1.26.04-1.26-1.23v-16.21a1.45 1.44 89.8 0 1 1.43-1.45l9.68-.1a.87.87 0 0 0 .84-.7l.37-1.84q.21-1.07-.88-1.07l-12.02-.03q-.93 0-.94-.94l-.01-.97q-.01-1.07 1.06-1.07l11.75.1q.53 0 .63-.53l.35-2.02q.16-.88 1.04-1.01l.93-.15a.93.93 0 0 1 1.07.93q0 1.03.32 1.9a.65.64 86.4 0 0 .45.4q2.47.57 4.72.37.55-.04.34-.55l-.79-1.91q-.41-1 .67-.91l1.02.09a1.56 1.54-10.9 0 1 1.26.84q1.32 2.56 4.18 2.59a1.32 1.31-3.8 0 1 1.29 1.12l.12.84q.17 1.17-1.01 1.16l-12.04-.13q-.71-.01-.71.71-.01 1.15.66 2.08a1.06 1.04-15.9 0 0 .79.43l9.26.54q1.47.08 1.48 1.55l.12 15.58a1.46 1.46 0 0 1 -1.38 1.47l-1.64.1q-.95.06-1.06 1-.05.47.13.93a1.16 1.16 0 0 0 1.03.73l3.86.16a1.62 1.61-8 0 1 1.48 1.11q.13.4.14.81.05 1.35-1.29 1.52-2.41.29-4.5.03a.75.75 0 0 0 -.84.76q.09 3.49-.05 6.76c-.21 5.19-5.94 4.39-9.43 4.13q-.86-.07-.87-.93l-.03-1.94q-.01-.71.71-.69l4.06.13q1.56.05 1.6-1.5l.12-5.42q.03-1.32-1.29-1.25-5.54.27-11.62.07-1.32-.05-.36.85zm5.6449-21.9937a1.14 1.14 0 0 0 -1.13-1.1499l-6.0398-.0527a1.14 1.14 0 0 0 -1.1499 1.13l-.0101 1.16a1.14 1.14 0 0 0 1.13 1.1499l6.0398.0527a1.14 1.14 0 0 0 1.1499-1.13zm11.789.0992a1.24 1.24 0 0 0 -1.2291-1.2507l-5.6598-.0494a1.24 1.24 0 0 0 -1.2507 1.2291l-.0082.94a1.24 1.24 0 0 0 1.2291 1.2507l5.6598.0494a1.24 1.24 0 0 0 1.2507-1.2291zm-11.7201 6.2357a1.21 1.21 0 0 0 -1.1951-1.2247l-5.9595-.0728a1.21 1.21 0 0 0 -1.2247 1.1951l-.0083.68a1.21 1.21 0 0 0 1.1951 1.2247l5.9595.0728a1.21 1.21 0 0 0 1.2247-1.1951zm11.5697.1863a1.34 1.34 0 0 0 -1.3069-1.3723l-5.2984-.1295a1.34 1.34 0 0 0 -1.3724 1.3069l-.0093.3799a1.34 1.34 0 0 0 1.3069 1.3723l5.2984.1295a1.34 1.34 0 0 0 1.3724-1.3069zm137.5065 13.4225 3.86 3.69q.9.87-.05 1.68l-.4.35q-1.02.88-2.12.08-3.8-2.81-4.34-5.72-.11-.58-.69-.57l-14.95.17q-1.32.01-1.26-1.3l.03-.51a1.09 1.08 1.1 0 1 1.09-1.04l30.17-.01q1.35 0 1.46-1.35l.04-.51q.1-1.19-1.09-1.2l-28.45-.16a1.12 1.11-16.7 0 1 -.93-.5q-1-1.54 1.15-2.01a1.56 1.39-48.4 0 1 .34-.04l27.6-.08a1.3 1.3 0 0 0 1.29-1.24l.01-.38a1.47 1.47 0 0 0 -1.47-1.54l-30.03-.02q-.79 0-.81-.79l-.02-.38q-.03-1.3 1.26-1.37l3.83-.2q.84-.05 1.47-.61.38-.34.41-.76.08-1.24-1.16-1.27l-7.52-.17q-.93-.02-.94-.96l-.01-.43a1.22 1.21 89.3 0 1 1.19-1.23l7.54-.1q.7-.01.79-.71l.14-1.24a.77.77 0 0 0 -.83-.86q-3.66.28-6.87-.26-.59-.1-.57-.7.05-1.42 1.44-1.61 2.63-.37 5.68.05 1.36.18 1.28-1.19l-.06-1.09q-.04-.85-.9-.86l-7.41-.12q-.43-.01-.68-.35-.49-.66-.01-1.23.21-.24.52-.32 3.85-.94 7.3-.14.55.12.87-.35.45-.67.36-1.46-.06-.51.41-.72.78-.36 1.5.01.72.36.5 1.13-.09.31.09.52.3.33.74.33 7.12.03 14.21.05 1.31 0 2.54.6.53.25.72-.3.3-.88.26-1.83-.02-.77.74-.86 1.86-.21 2.2 1.72.11.63.76.68l6.78.48q.94.07 1.04 1 .05.47-.24.88-.2.28-.55.28l-6.78-.03a1.19 1.18-86.8 0 0 -1.19 1.07l-.03.39a1.02 1.02 0 0 0 .92 1.12l5.41.5q1.21.11 1.35 1.32l.03.36q.09.77-.68.79l-4.79.14q-1.09.03-1.8.86-.39.46-.3.92.21.97 1.2.99l6.73.15a.84.83 69.4 0 1 .63.29q.39.43.35.91-.1 1.29-1.4 1.33l-6.46.2a1 1 0 0 0 -.98 1.01v.3q.02 1.39 1.4 1.4l3.09.04a.65.64-90 0 1 .64.65l-.1 13.24q-.01.67-.68.66l-15.64-.09a.25.25 0 0 0 -.17.43zm-1-20.03q.04.04.06.08.08.2.18.01.07-.15.2-.24.34-.24.74-.24 3.95-.07 7.27-.04 1.06.02.91-1.03l-.07-.51q-.17-1.18-1.35-1.19l-5.72-.03a.97.97 0 0 1 -.96-1.08q.32-2.74 7.52-1.68.91.13.76-.78l-.23-1.38q-.11-.65-.76-.66l-7.04-.12a.79.76-19.3 0 1 -.56-.26q-.67-.74-1.23-.14-.4.43-.99.42l-6.8-.12q-1.18-.02-1.06 1.15l.05.45q.11 1.05 1.17 1.06 2.67.02 5.47.47 1.47.23 1.71 1.62a.8.79-5.6 0 1 -.77.93l-6.5.18q-1.02.02-.87 1.04.03.24.12.48a1.81 1.79-10.3 0 0 1.76 1.21q3.5-.13 6.82.3.1.02.17.1zm9.2005 3.5711a1.31 1.31 0 0 0 -1.3054-1.3146l-15.1799-.053a1.31 1.31 0 0 0 -1.3146 1.3054l-.0011.32a1.31 1.31 0 0 0 1.3054 1.3146l15.1799.053a1.31 1.31 0 0 0 1.3146-1.3054z"/>
    <rect height="3.88" rx="1.73" transform="matrix(.75241491 .65868946 -.65868946 .75241491 158.810374 244.649848)" width="12.06" x="-6.03" y="-1.94"/>
    <rect height="3.78" rx="1.23" transform="matrix(.99999848 -.00174533 .00174533 .99999848 182.110001 242.870001)" width="23.32" x="-11.66" y="-1.89"/>
    <path d="m246.6457 260.5454a.44.44 0 0 1 -.4393.4408l-15.8199.0276a.44.44 0 0 1 -.4408-.4392l-.0314-17.96a.44.44 0 0 1 .4393-.4408l15.8199-.0276a.44.44 0 0 1 .4408.4392zm-3.6757-14.5154a.57.57 0 0 0 -.57-.57h-8.34a.57.57 0 0 0 -.57.57v11.08a.57.57 0 0 0 .57.57h8.34a.57.57 0 0 0 .57-.57zm-64.13 11.28c-.16 7.73-2.25 15.27-9.04 19.73q-1.36.9-2.45-.32l-.37-.43q-1.17-1.32.28-2.32c6.11-4.22 7.32-9.47 7.71-16.28q.06-.94-.88-.95l-5.81-.06a1.29 1.29 0 0 1 -1.26-1.5l.21-1.21q.22-1.31 1.55-1.31l26.94-.03q.84-.01.82.84l-.06 2.54q-.02.72-.74.72l-6.72-.02q-.76 0-.76.77l.02 14.99q.01 1.68 1.69 1.59l1.38-.07a1.95 1.94-88.8 0 0 1.83-1.76l.33-3.46q.1-1.14 1.23-.93l1.45.28q1.5.29 1.2 1.79l-1.08 5.36a2.18 2.16-2 0 1 -1.57 1.67c-3.29.88-10.29 1.97-10.39-3.55q-.14-8.21-.01-16.04.01-.59-.58-.59l-4.34-.02q-.57-.01-.58.57z"/>
    <path d="m158.53 260.29q-2.6-.37-5.34-.18-1.03.07-1-.96l.05-1.45a1.31 1.31 0 0 1 1.31-1.27l8.59.01a.83.83 0 0 1 .83.82q.09 7.93-.05 15.95-.04 2.18 1.17 3.57c2.8 3.19 6.28 4.18 10.51 4.21q12.33.09 22.65-.02 1.05-.01.83 1.01l-.42 1.93q-.19.88-1.09.9-13.13.38-24.66-.22c-2.58-.13-6.17-1.23-7.92-3.4q-.83-1.03-1.84-1.78a1.9 1.89-50.5 0 0 -2.54.25q-2.15 2.37-3.73 5.13-.88 1.53-2.15.32l-.72-.68q-1-.95-.24-2.11 2.05-3.11 4.59-5.45c.81-.75 1.77-1.2 1.85-2.46q.45-7.08.01-13.38-.05-.65-.69-.74zm52.13 4.14 31.42.02a.89.89 0 0 1 .89.89l.01 19.94q0 .77-.77.75l-2.18-.07a.96.96 0 0 1 -.91-.8l-.2-1.14a.49.49 0 0 0 -.48-.41l-23.25.06q-.6 0-.75.59-.56 2.33-3.48 1.72a.84.83-83.7 0 1 -.66-.83zm28.4572 4.2382a.68.68 0 0 0 -.6812-.6788l-23.5999.0412a.68.68 0 0 0 -.6789.6812l.0056 3.18a.68.68 0 0 0 .6812.6788l23.5999-.0412a.68.68 0 0 0 .6789-.6812zm-.0117 8.1282a.81.81 0 0 0 -.8128-.8072l-23.3599.0816a.81.81 0 0 0 -.8072.8128l.0089 2.54a.81.81 0 0 0 .8128.8072l23.3599-.0816a.81.81 0 0 0 .8072-.8128zm30.8845 3.8536a1.51 1.51 0 0 0 1.44 1.06q5.54.05 11.23.09 4.35.04 4.02-4.81-.06-.92.85-.72l1.99.44q.95.21.97 1.18c.05 1.88-.7 5.89-2.9 6.66q-1.07.38-2.22.4-7.43.15-15.76-.04-3.19-.07-3.33-3.18-.14-2.97-.12-5.92.01-1.52 1.51-1.79.29-.05.57 0 1.84.34 1.58 2.19-.38 2.68.17 4.44z"/>
    <rect height="10.86" rx="1.02" transform="matrix(.77824315 -.62796306 .62796306 .77824315 296.259947 278.850238)" width="3.56" x="-1.78" y="-5.43"/>
    <path d="m255.39 283.73a.77.77 0 0 1 -.32-1.04l3.83-7.22a1.74 1.53-62 0 1 2.17-.82l.53.29a1.74 1.53-62 0 1 .54 2.25l-3.84 7.21a.77.77 0 0 1 -1.04.32zm-85.88 27.87 4.32 2.44q.48.28.35.82l-.07.29a.36.36 0 0 1 -.41.27q-3.07-.54-5.41-2.59a1.2 1.19-42.9 0 0 -1.53-.05q-2.62 2.02-6.08 2.64-.65.12-.56-.54c.04-.29.31-.68.58-.82q1.95-.96 3.78-1.82 1.69-.78.57-2.28-1.33-1.78-2.22-3.96-.91-2.22-2.95-.95l-1.56.97q-.79.49-.78 1.43l.09 5.58q.01.57-.28 1.04-1 1.63-3.25 1.24-2.33-.39-.12-1.21l.82-.31a1.01 1 81.1 0 0 .66-.92l.13-4.25a.67.67 0 0 0 -.73-.68l-1.54.15q-1.75.17-.74-1.27.57-.79 1.64-.75a1.21 1.21 0 0 0 1.25-1.19l.08-4.25a.69.68 1.7 0 0 -.67-.7l-2.03-.06a.41.41 0 0 1 -.4-.41l.01-.36a.84.83 85.4 0 1 .68-.81l1.8-.33a.84.84 0 0 0 .65-1.04q-.3-1.15-.11-2.25.09-.54.63-.65 1.33-.26 1.52 1.04.1.67-.09 1.33a1.52 1.51-5.5 0 0 2.14 1.76q2.43-1.21 5.64-.63.74.14.78-.61l.15-2.28q.05-.77.82-.75l.32.01a.48.47 83.9 0 1 .46.38q.26 1.23.1 2.49a.7.69-88.3 0 0 .73.78l4.46-.27q.68-.04.75.64l.04.49q.06.61-.54.61l-4.24-.02q-1.11 0-1.15 1.11l-.04 1.43q-.04 1.37 1.32 1.26l2.67-.22a.71.71 0 0 1 .77.64c.28 2.7-1.75 5.44-3.39 7.46q-.46.57.18.93zm-10.89-7.71 7.14-1.49a.88.88 0 0 0 .69-1.04l-.28-1.33a4.11 1.98-11.8 0 0 -4.43-1.1l-.82.17a4.11 1.98-11.8 0 0 -3.62 2.78l.28 1.33a.88.88 0 0 0 1.04.68zm11.82 2.22a.95.95 0 0 0 -.78-1.5l-4.3.06a.95.95 0 0 0 -.79 1.47l2.04 3.11a.95.95 0 0 0 1.57.04zm38.32-1.51q-.74-2.72-.36-5.64.09-.71-.62-.74l-5.06-.26q-.71-.04-.72-.75v-.44q-.01-.75.73-.74l7.09.04a.91.91 0 0 0 .76-.41q.3-.45.34-1.02.05-.69.73-.8.22-.03.43.17.27.26.39.61.52 1.61 2.23 1.51 3.55-.22 7.17-.02.63.03.64.66l.01.46a.66.66 0 0 1 -.55.65q-2.98.47-5.92.08-.83-.11-.63.7.64 2.63-.02 5.05-.48 1.78-.99.01-.61-2.1-.3-4.33.22-1.56-1.36-1.57l-.9-.01q-1.82-.01-1.6 1.8.31 2.44-.42 4.78-.15.48.35.57 2.08.34 4.12.06.47-.06.91.1 1.51.56 3.19.23 2.66-.52.94 1.58-1.87 2.27-3.89 3.47-2 1.2.23 1.85 3.18.93 6.24 1.53.68.14.79.83l.04.26q.08.49-.42.47-4.6-.27-9.38-2.42-.61-.27-1.22-.01-4.66 1.94-9.66 2.38a.43.42-84.7 0 1 -.44-.54l.07-.26q.13-.45.59-.57l7.31-1.9a.55.55 0 0 0 .14-1q-1.76-1.04-2.96-2.69c-.78-1.08-1.81-1.34-3.01-1.68a.68.68 0 0 1 -.22-1.21q.62-.46 1.49-.37 1.72.19 3.33.08.53-.04.39-.55zm7.52 3.22a.59.59 0 0 0 -.39-1.04l-7.14.17a.59.59 0 0 0 -.35 1.06l3.64 2.78a.59.59 0 0 0 .74-.01zm-82.05-1.16.21 8.42a.62.61 2.1 0 1 -.67.62l-.35-.03a1.04 1.03 2.4 0 1 -.95-1.03q-.01-3.42.2-6.71.03-.51-.31-.87a.61.61 0 0 0 -.96.08l-2.23 3.41a.44.44 0 0 1 -.72.03l-.24-.31q-.59-.79.03-1.55 2.2-2.69 3.77-5.33a.91.9-74.5 0 0 -.77-1.37l-2.21-.01q-.68 0-.52-.65l.1-.39q.19-.8 1-.67 1.83.3 2.7-.72.74-.86.08-1.81-.47-.7-1.3-.59-.88.12-1.87.08-.5-.03-.45-.53l.03-.3q.08-.7.78-.82l6.51-1.07q.66-.11 1.07.42l.22.29a.35.35 0 0 1 -.13.53l-2.12 1.03a1.79 1.78-46.1 0 0 .06 3.24q2.43 1.06 4.77.98.54-.01.92.36l3.08 3.03a.54.53 53.3 0 1 -.12.85q-.9.49-1.67-.18-1.35-1.17-2.76-2.37-.99-.85-2.29-.84-1.01 0-1.79.25-1.61.5-.27 1.51 2.51 1.89 3.47 4.2.31.73 1.09.6l5.1-.89q.7-.12.92-.79.22-.64-.01-1.27-.18-.48-.13-.98.45-4.44-.01-9.09-.09-.91.75-1.26.29-.11.6-.09.88.05.87.93l-.14 10.97a.87.87 0 0 0 .82.88q.92.06 1.39.77.43.64-.29.9l-1.47.53q-.48.18-.47.69l.09 5.18q.02.7-.68.75l-.42.03q-1.27.09-1.15-1.17l.43-4.55a.52.51-1.3 0 0 -.59-.56l-5.82.94a.83.82 71 0 1 -.85-.42q-1.19-2.18-3.47-3.74a.55.54 16.4 0 0 -.86.46zm57-9.15 6.24-.15a.53.52-10.8 0 1 .51.34q.09.25-.02.48-.1.25-.34.38-.68.38-1.17.91a1.55 1.5-23.3 0 0 -.41.98q-.13 4.4-2.21 8.38a1.02 1.01-50.1 0 0 .09 1.06q1.75 2.35 4.62 4.24a.5.5 0 0 1 .15.69l-.18.3q-.44.71-1.19.32-2.55-1.33-4.33-3.69-.73-.97-1.46 0-1.64 2.18-4.39 3.4-.66.29-1.27-.09l-.23-.14a.41.41 0 0 1 -.01-.7q2.99-1.98 5.06-4.06.57-.58.22-1.32l-2.04-4.32q-.26-.55-.85-.43-3.45.71-6.79.48a.9.9 0 0 0 -.96.9l-.02 5.55a.7.7 0 0 0 1.04.61q2.28-1.25 4.94-1.87a.35.35 0 0 1 .43.35l-.01.41q-.02.76-.73 1.04l-7.06 2.78a.53.53 0 0 1 -.73-.51l.31-10.02a1.21 1.2 1.9 0 1 1.25-1.16l2.64.08q1.15.04 1.19-1.11l.12-3.17a.94.93.9 0 0 -.94-.96h-5.27a.49.49 0 0 1 -.49-.56l.06-.38q.12-.83.95-.83l6.81-.03a.74.73-4 0 1 .73.63q.44 3.18-.1 5.89-.17.84.64.55l.27-.1a1.82 1.82 0 0 0 1.05-1.02q1.29-3.28 1.75-6.87a.71.71 0 0 1 .34-.53q1.67-1.06 1.29 2.73-.06.55.5.54zm-1.61 3.17a.92.92 0 0 0 -.01.62l1.74 5.05a.92.92 0 0 0 1.77-.09l1.4-6.08a.92.92 0 0 0 -.81-1.13l-2.67-.24a.92.92 0 0 0 -.95.59zm40.86 1.18.11 10.61q0 .62.63.62l14.71-.1q.6-.01.6.59l-.01.41a.85.84-89.3 0 1 -.85.84l-16.44-.05q-.54-.01-.54-.55l.01-12.28q0-.55-.54-.51-.91.06-1.8-.16a.52.52 0 0 1 -.34-.75l.21-.39a1.04 1.04 0 0 1 1.15-.52q1.42.33 1.38-.92-.07-1.79.01-3.72.03-.67.69-.75l.42-.05q.68-.09.66.59l-.15 4.15q-.03.8.77.8h3.32a.74.73 1.2 0 0 .74-.7l.21-4.53a.43.43 0 0 1 .41-.41l.35-.01a.65.64-1.8 0 1 .67.62l.12 4.1q.02.79.81.79h3.64q.74 0 .7-.75l-.22-3.81q-.05-.88.82-.99l.38-.05q.46-.06.45.4l-.01 4.4a.86.86 0 0 0 1.04.84q.93-.2 1.85.06.62.18.59.82-.04.81-.84.81-1.15 0-2.27.15a.48.48 0 0 0 -.41.49l.11 5.98q.01.58-.57.64-3.5.35-7.22-.01a.61.6 3.2 0 1 -.54-.6l-.04-5.97q0-.51-.51-.54l-3.6-.22q-.66-.04-.66.63zm11.6438.0489a.45.45 0 0 0 -.4397-.4601l-4.2389-.0962a.45.45 0 0 0 -.4601.4397l-.1089 4.7988a.45.45 0 0 0 .4397.4601l4.2389.0962a.45.45 0 0 0 .4601-.4397zm23.3762 3.3911q2.26 1.73 5.1 2.74.47.17.81.5.45.44.08 1.02a1.18 1.18 0 0 1 -1.58.38l-3.57-2.04a.66.66 0 0 0 -.99.57l-.02 6.75a.55.54-89.5 0 1 -.55.55h-.5q-.86-.01-.9-.87-.19-4.42.58-8.94.09-.51-.35-.78-2.29-1.44-4.84-.51a1.48 1.48 0 0 0 -.85 2c1.42 3.19-1.06 6.9-3.78 8.29q-.8.4-1.72.36-.4-.03-.64-.29a.55.55 0 0 1 .19-.87q4.16-1.87 4.68-5.99a.6.59 80.2 0 0 -.86-.61l-4.74 2.44a.59.59 0 0 1 -.81-.28l-.17-.37q-.37-.82.44-1.21l5.42-2.57q.65-.32.04-.69-.94-.58-2.09-.56-1.23.01-1.24-1.23l-.03-7.17a.92.92 0 0 1 .92-.93l14.52-.03q.97 0 .97.97l-.05 7.32q-.01 1.06-1.07.99-1.19-.09-2.3.33-.7.27-.1.73zm-5.2469-7.6966a1.05 1.05 0 0 0 -1.0127-1.086l-3.8177-.1333a1.05 1.05 0 0 0 -1.086 1.0127l-.0098.2798a1.05 1.05 0 0 0 1.0127 1.086l3.8177.1333a1.05 1.05 0 0 0 1.086-1.0127zm6.9007-.06a1.02 1.02 0 0 0 -.993-1.0464l-3.5588-.0932a1.02 1.02 0 0 0 -1.0463.993l-.0095.3598a1.02 1.02 0 0 0 .993 1.0464l3.5588.0932a1.02 1.02 0 0 0 1.0463-.993zm-6.9203 3.8882a.97.97 0 0 0 -.9494-.9901l-3.9392-.0825a.97.97 0 0 0 -.9901.9495l-.0083.3999a.97.97 0 0 0 .9494.9901l3.9392.0825a.97.97 0 0 0 .9901-.9495zm6.4565-1.0216-4.78-.06a.47.47 0 0 0 -.48.47v.31a1.83 1.74.7 0 0 1.8 1.76l2.06.02a1.83 1.74.7 0 0 1.86-1.72v-.31a.47.47 0 0 0 -.46-.47z"/>
    <ellipse rx="3.32" ry="1.1" transform="matrix(.79015501 .61290705 -.61290705 .79015501 142.019916 297.749771)"/>
    <rect height="1.78" rx=".69" transform="matrix(.77933796 .62660381 -.62660381 .77933796 220.090276 301.429788)" width="5.76" x="-2.88" y="-.89"/>
    <rect height="1.9" rx=".85" transform="matrix(.81411552 -.58070296 .58070296 .81411552 204.389999 301.530176)" width="6" x="-3" y="-.95"/>
</svg>